RobotoExtremo-opsz14-wght100-wdth25-YOPQ4.ufo
<glyph name="exclam" format="2">
  <advance width="505"/>
  <unicode hex="0021"/>
  <outline>
    <contour>
      <point x="186.0" y="43.81481481481482" type="qcurve" smooth="yes"/>
      <point x="186.0" y="71.14814814814815"/>
      <point x="221.0" y="109.62962962962963"/>
      <point x="253.0" y="109.62962962962963" type="qcurve" smooth="yes"/>
      <point x="285.0" y="109.62962962962963"/>
      <point x="319.0" y="71.14814814814815"/>
      <point x="319.0" y="43.81481481481482" type="qcurve" smooth="yes"/>
      <point x="319.0" y="16.48148148148148"/>
      <point x="285.0" y="-22.0"/>
      <point x="253.0" y="-22.0" type="qcurve" smooth="yes"/>
      <point x="221.0" y="-22.0"/>
      <point x="186.0" y="16.48148148148148"/>
    </contour>
    <contour>
      <point x="218.0" y="373.55555555555554" type="line"/>
      <point x="212.0" y="1456.0" type="line"/>
      <point x="293.0" y="1456.0" type="line"/>
      <point x="286.0" y="373.55555555555554" type="line"/>
    </contour>
  </outline>
</glyph>
<glyph name="quotedbl" format="2">
  <advance width="587"/>
  <unicode hex="0022"/>
  <outline>
    <contour>
      <point x="107.34" y="1108.28" type="line"/>
      <point x="100.0" y="1358.72" type="line"/>
      <point x="100.0" y="1456.0" type="line"/>
      <point x="194.07999999999998" y="1456.0" type="line"/>
      <point x="194.07999999999998" y="1358.72" type="line"/>
      <point x="185.74" y="1108.28" type="line"/>
    </contour>
    <contour>
      <point x="401.42" y="1108.28" type="line"/>
      <point x="394.08" y="1358.72" type="line"/>
      <point x="394.08" y="1456.0" type="line"/>
      <point x="487.15999999999997" y="1456.0" type="line"/>
      <point x="487.15999999999997" y="1358.72" type="line"/>
      <point x="478.82" y="1108.28" type="line"/>
    </contour>
  </outline>
</glyph>
<glyph name="numbersign" format="2">
  <advance width="1345"/>
  <unicode hex="0023"/>
  <outline>
    <contour>
      <point x="235.88" y="-20.0" type="line"/>
      <point x="684.28" y="1450.5185185185185" type="line"/>
      <point x="755.68" y="1450.5185185185185" type="line"/>
      <point x="308.28000000000003" y="-20.0" type="line"/>
    </contour>
    <contour>
      <point x="614.2" y="-20.0" type="line"/>
      <point x="1061.76" y="1450.5185185185185" type="line"/>
      <point x="1134.16" y="1450.5185185185185" type="line"/>
      <point x="686.6" y="-20.0" type="line"/>
    </contour>
    <contour>
      <point x="96.80000000000001" y="468.72" type="line"/>
      <point x="96.80000000000001" y="505.15555555555557" type="line"/>
      <point x="1179.2" y="505.15555555555557" type="line"/>
      <point x="1179.2" y="468.72" type="line"/>
    </contour>
    <contour>
      <point x="202.87703703703704" y="913.8074074074074" type="line"/>
      <point x="202.87703703703704" y="950.2429629629629" type="line"/>
      <point x="1285.277037037037" y="950.2429629629629" type="line"/>
      <point x="1285.277037037037" y="913.8074074074074" type="line"/>
    </contour>
  </outline>
</glyph>
<glyph name="parenright" format="2">
  <advance width="588"/>
  <unicode hex="0029"/>
  <outline>
    <contour>
      <point x="82.0" y="-436.0" type="qcurve"/>
      <point x="82.0" y="-420.5925925925926" type="line"/>
      <point x="213.0" y="-345.5925925925926"/>
      <point x="381.0" y="62.651851851851866"/>
      <point x="381.0" y="508.0" type="qcurve" smooth="yes"/>
      <point x="381.0" y="532.0" type="line" smooth="yes"/>
      <point x="381.0" y="956.6074074074074"/>
      <point x="213.0" y="1384.5925925925926"/>
      <point x="82.0" y="1459.5925925925926" type="qcurve"/>
      <point x="82.0" y="1476.0" type="line"/>
      <point x="253.0" y="1402.6296296296296"/>
      <point x="464.4" y="924.4444444444445"/>
      <point x="464.4" y="525.0" type="qcurve" smooth="yes"/>
      <point x="464.4" y="515.0" type="line" smooth="yes"/>
      <point x="464.4" y="90.37037037037037"/>
      <point x="253.0" y="-362.6296296296296"/>
    </contour>
  </outline>
</glyph>
<glyph name="plus" format="2">
  <advance width="1386"/>
  <unicode hex="002B"/>
  <outline>
    <contour>
      <point x="229.4488888888889" y="661.6859259259259" type="line"/>
      <point x="229.4488888888889" y="689.2770370370371" type="line"/>
      <point x="1156.8474074074074" y="689.2770370370371" type="line"/>
      <point x="1156.8474074074074" y="661.6859259259259" type="line"/>
    </contour>
    <contour>
      <point x="653.7681481481482" y="172.66962962962964" type="line"/>
      <point x="653.7681481481482" y="1175.3303703703705" type="line"/>
      <point x="732.5281481481481" y="1175.3303703703705" type="line"/>
      <point x="732.5281481481481" y="172.66962962962964" type="line"/>
    </contour>
  </outline>
</glyph>
<glyph name="hyphen" format="2">
  <advance width="458"/>
  <unicode hex="002D"/>
  <outline>
    <contour>
      <point x="10.37037037037037" y="595.96" type="line"/>
      <point x="10.37037037037037" y="680.0" type="line"/>
      <point x="446.9303703703703" y="680.0" type="line"/>
      <point x="446.9303703703703" y="595.96" type="line"/>
    </contour>
  </outline>
</glyph>
<glyph name="two" format="2">
  <advance width="1038"/>
  <unicode hex="0032"/>
  <outline>
    <contour>
      <point x="172.0" y="0.0" type="line"/>
      <point x="172.0" y="31.66666666666667" type="line"/>
      <point x="632.0" y="672.2962962962963" type="line" smooth="yes"/>
      <point x="710.0" y="787.4444444444445"/>
      <point x="794.0" y="999.2222222222222"/>
      <point x="794.0" y="1126.0" type="qcurve" smooth="yes"/>
      <point x="794.0" y="1265.0740740740741"/>
      <point x="667.0" y="1459.0"/>
      <point x="545.0" y="1458.0" type="qcurve" smooth="yes"/>
      <point x="419.0" y="1457.0"/>
      <point x="256.0" y="1260.0740740740741"/>
      <point x="256.0" y="1046.0" type="qcurve" smooth="yes"/>
      <point x="256.0" y="1030.0" type="line"/>
      <point x="175.0" y="1030.0" type="line"/>
      <point x="175.0" y="1045.0" type="line" smooth="yes"/>
      <point x="175.0" y="1257.0"/>
      <point x="382.0" y="1486.0"/>
      <point x="545.0" y="1486.0" type="qcurve" smooth="yes"/>
      <point x="703.0" y="1486.0"/>
      <point x="876.0" y="1276.0"/>
      <point x="876.0" y="1128.0" type="qcurve" smooth="yes"/>
      <point x="876.0" y="1002.8888888888889"/>
      <point x="795.0" y="805.7407407407408"/>
      <point x="692.0" y="658.0" type="qcurve" smooth="yes"/>
      <point x="244.14814814814815" y="13.148148148148152" type="line"/>
      <point x="920.0" y="13.148148148148152" type="line"/>
      <point x="920.0" y="0.0" type="line"/>
    </contour>
  </outline>
</glyph>
<glyph name="three" format="2">
  <advance width="1038"/>
  <unicode hex="0033"/>
  <outline>
    <contour>
      <point x="144.0" y="378.0" type="qcurve" smooth="yes"/>
      <point x="144.0" y="390.0" type="line"/>
      <point x="224.0" y="390.0" type="line"/>
      <point x="224.0" y="380.0" type="line" smooth="yes"/>
      <point x="224.0" y="199.92592592592592"/>
      <point x="393.0" y="-2.0"/>
      <point x="517.0" y="-2.0" type="qcurve" smooth="yes"/>
      <point x="631.0" y="-2.0"/>
      <point x="806.0" y="196.92592592592592"/>
      <point x="806.0" y="381.0" type="qcurve" smooth="yes"/>
      <point x="806.0" y="564.6296296296297"/>
      <point x="604.64" y="742.074074074074"/>
      <point x="482.6" y="742.074074074074" type="qcurve" smooth="yes"/>
      <point x="376.96" y="742.074074074074" type="line"/>
      <point x="376.96" y="775.925925925926" type="line"/>
      <point x="473.12" y="775.925925925926" type="line" smooth="yes"/>
      <point x="593.88" y="775.925925925926"/>
      <point x="760.0" y="957.1851851851852"/>
      <point x="760.0" y="1102.8148148148148" type="qcurve" smooth="yes"/>
      <point x="760.0" y="1270.0740740740741"/>
      <point x="620.0" y="1459.0"/>
      <point x="517.04" y="1458.44" type="qcurve" smooth="yes"/>
      <point x="415.0" y="1458.0"/>
      <point x="258.0" y="1261.0740740740741"/>
      <point x="258.0" y="1100.0" type="qcurve" smooth="yes"/>
      <point x="258.0" y="1080.0" type="line"/>
      <point x="180.0" y="1080.0" type="line"/>
      <point x="180.0" y="1100.0" type="line" smooth="yes"/>
      <point x="180.0" y="1271.8148148148148"/>
      <point x="380.0" y="1486.0"/>
      <point x="517.04" y="1486.0" type="qcurve" smooth="yes"/>
      <point x="656.0" y="1486.0"/>
      <point x="842.0" y="1270.0"/>
      <point x="842.0" y="1100.0" type="qcurve" smooth="yes"/>
      <point x="842.0" y="988.1851851851852"/>
      <point x="733.0" y="814.0370370370371"/>
      <point x="622.0" y="761.074074074074" type="qcurve"/>
      <point x="622.0" y="757.074074074074" type="line"/>
      <point x="733.0" y="731.0370370370371"/>
      <point x="890.0" y="544.0"/>
      <point x="890.0" y="375.51851851851853" type="qcurve" smooth="yes"/>
      <point x="890.0" y="201.0"/>
      <point x="672.0" y="-30.0"/>
      <point x="517.0" y="-31.0" type="qcurve" smooth="yes"/>
      <point x="362.0" y="-32.0"/>
      <point x="144.0" y="188.0"/>
    </contour>
  </outline>
</glyph>
<glyph name="four" format="2">
  <advance width="1038"/>
  <unicode hex="0034"/>
  <outline>
    <contour>
      <point x="675.0" y="0.0" type="line"/>
      <point x="675.0" y="426.7037037037037" type="line"/>
      <point x="675.0" y="427.48148148148147" type="line"/>
      <point x="675.0" y="1333.7407407407406" type="line"/>
      <point x="667.0" y="1333.7407407407406" type="line"/>
      <point x="93.55555555555556" y="441.037037037037" type="line"/>
      <point x="712.0" y="441.037037037037" type="line"/>
      <point x="733.0" y="441.037037037037" type="line"/>
      <point x="939.0" y="441.037037037037" type="line"/>
      <point x="939.0" y="364.9259259259259" type="line"/>
      <point x="79.0" y="364.9259259259259" type="line"/>
      <point x="79.0" y="444.0" type="line"/>
      <point x="699.0" y="1456.0" type="line"/>
      <point x="754.0" y="1456.0" type="line"/>
      <point x="754.0" y="0.0" type="line"/>
    </contour>
  </outline>
</glyph>
<glyph name="seven" format="2">
  <advance width="1038"/>
  <unicode hex="0037"/>
  <outline>
    <contour>
      <point x="346.6296296296296" y="0.0" type="line"/>
      <point x="874.7407407407408" y="1376.5555555555557" type="line"/>
      <point x="98.0" y="1376.5555555555557" type="line"/>
      <point x="98.0" y="1456.0" type="line"/>
      <point x="898.0" y="1456.0" type="line"/>
      <point x="898.0" y="1388.0" type="line"/>
      <point x="374.0" y="0.0" type="line"/>
    </contour>
  </outline>
</glyph>
<glyph name="eight" format="2">
  <advance width="1038"/>
  <unicode hex="0038"/>
  <outline>
    <contour>
      <point x="141.0" y="374.18518518518516" type="qcurve" smooth="yes"/>
      <point x="141.0" y="516.9384790953418"/>
      <point x="282.51851851851853" y="704.3741625617191"/>
      <point x="395.51851851851853" y="743.5555555555555" type="qcurve"/>
      <point x="395.51851851851853" y="747.5555555555555" type="line"/>
      <point x="295.51851851851853" y="782.7369335422677"/>
      <point x="181.0" y="975.115468409586"/>
      <point x="181.0" y="1098.8148148148148" type="qcurve" smooth="yes"/>
      <point x="181.0" y="1273.6427179058758"/>
      <point x="369.51851851851853" y="1486.0"/>
      <point x="517.5185185185185" y="1486.0" type="qcurve" smooth="yes"/>
      <point x="665.5185185185185" y="1486.0"/>
      <point x="857.0" y="1270.6797549429127"/>
      <point x="857.0" y="1098.8148148148148" type="qcurve" smooth="yes"/>
      <point x="857.0" y="975.115468409586"/>
      <point x="742.0" y="783.7369335422677"/>
      <point x="641.0" y="747.5555555555555" type="qcurve"/>
      <point x="641.0" y="743.5555555555555" type="line"/>
      <point x="759.0" y="710.3741625617191"/>
      <point x="897.0" y="518.9384790953418"/>
      <point x="897.0" y="374.18518518518516" type="qcurve" smooth="yes"/>
      <point x="897.0" y="181.47685185185185"/>
      <point x="682.5185185185185" y="-30.0"/>
      <point x="517.5185185185185" y="-30.0" type="qcurve" smooth="yes"/>
      <point x="352.51851851851853" y="-30.0"/>
      <point x="141.0" y="181.47685185185185"/>
    </contour>
    <contour>
      <point x="223.0" y="371.3703703703704" type="qcurve" smooth="yes"/>
      <point x="223.0" y="205.34264318963773"/>
      <point x="377.51851851851853" y="-3.0"/>
      <point x="517.5185185185185" y="-2.0" type="qcurve" smooth="yes"/>
      <point x="656.5185185185185" y="-2.0"/>
      <point x="814.0" y="195.34264318963773"/>
      <point x="814.0" y="371.3703703703704" type="qcurve" smooth="yes"/>
      <point x="814.0" y="530.9853626081172"/>
      <point x="656.5185185185185" y="731.0"/>
      <point x="517.5185185185185" y="731.0" type="qcurve" smooth="yes"/>
      <point x="377.51851851851853" y="730.0"/>
      <point x="223.0" y="530.9853626081172"/>
    </contour>
    <contour>
      <point x="261.0" y="1101.6296296296296" type="qcurve" smooth="yes"/>
      <point x="261.0" y="952.5487790629746"/>
      <point x="395.51851851851853" y="760.0"/>
      <point x="517.5185185185185" y="759.0" type="qcurve" smooth="yes"/>
      <point x="638.5185185185185" y="759.0"/>
      <point x="777.0" y="952.5487790629746"/>
      <point x="777.0" y="1101.6296296296296" type="qcurve" smooth="yes"/>
      <point x="777.0" y="1258.2225405921681"/>
      <point x="638.5185185185185" y="1458.0"/>
      <point x="517.5185185185185" y="1458.0" type="qcurve" smooth="yes"/>
      <point x="395.51851851851853" y="1459.0"/>
      <point x="261.0" y="1258.2225405921681"/>
    </contour>
  </outline>
</glyph>
<glyph name="greater" format="2">
  <advance width="1317"/>
  <unicode hex="003E"/>
  <outline>
    <contour>
      <point x="289.6296296296296" y="271.09925925925927" type="line"/>
      <point x="289.6296296296296" y="298.02222222222224" type="line"/>
      <point x="970.1466666666666" y="681.0" type="line"/>
      <point x="289.6296296296296" y="1070.7185185185185" type="line"/>
      <point x="289.6296296296296" y="1082.8266666666668" type="line"/>
      <point x="1037.788148148148" y="717.44" type="line"/>
      <point x="1037.788148148148" y="634.56" type="line"/>
    </contour>
  </outline>
</glyph>
<glyph name="A" format="2">
  <advance width="947"/>
  <unicode hex="0041"/>
  <anchor x="565.5555555555555" y="1432.0" name="top"/>
  <outline>
    <contour>
      <point x="0.0" y="0.0" type="line"/>
      <point x="422.77037037037036" y="1466.0" type="line"/>
      <point x="525.9155555555556" y="1466.0" type="line"/>
      <point x="946.1555555555555" y="0.0" type="line"/>
      <point x="862.6355555555555" y="0.0" type="line"/>
      <point x="506.3555555555555" y="1236.3214814814814" type="line" smooth="yes"/>
      <point x="495.69555555555553" y="1273.48"/>
      <point x="457.4977777777778" y="1400.4992592592594"/>
      <point x="449.7377777777778" y="1435.2192592592594" type="qcurve"/>
      <point x="441.2577777777778" y="1435.2192592592594" type="line"/>
      <point x="433.65777777777777" y="1400.4992592592594"/>
      <point x="387.0777777777777" y="1273.48"/>
      <point x="375.41777777777776" y="1236.3214814814814" type="qcurve" smooth="yes"/>
      <point x="16.56740740740741" y="0.0" type="line"/>
    </contour>
    <contour>
      <point x="143.22222222222223" y="451.8888888888889" type="line"/>
      <point x="139.51851851851853" y="474.8888888888889" type="line"/>
      <point x="771.7777777777778" y="474.8888888888889" type="line"/>
      <point x="768.5185185185185" y="451.8888888888889" type="line"/>
    </contour>
  </outline>
</glyph>
<glyph name="G" format="2">
  <advance width="951"/>
  <unicode hex="0047"/>
  <outline>
    <contour>
      <point x="115.0" y="686.8" type="qcurve" smooth="yes"/>
      <point x="115.0" y="769.2" type="line" smooth="yes"/>
      <point x="115.0" y="1107.44"/>
      <point x="365.3" y="1486.0"/>
      <point x="534.0407407407407" y="1486.0" type="qcurve" smooth="yes"/>
      <point x="735.3399999999999" y="1486.0"/>
      <point x="934.4829629629629" y="1229.6296296296296"/>
      <point x="943.3199999999999" y="1059.2592592592594" type="qcurve" smooth="yes"/>
      <point x="944.3199999999999" y="1049.2592592592594" type="line"/>
      <point x="861.7" y="1049.2592592592594" type="line"/>
      <point x="860.2185185185185" y="1059.2592592592594" type="line" smooth="yes"/>
      <point x="840.0278569092387" y="1227.803968276297"/>
      <point x="704.281181619256" y="1459.408888888889"/>
      <point x="537.0037037037036" y="1459.408888888889" type="qcurve" smooth="yes"/>
      <point x="379.6614035087719" y="1459.408888888889"/>
      <point x="197.14" y="1140.16"/>
      <point x="197.14" y="809.2" type="qcurve" smooth="yes"/>
      <point x="197.14" y="646.8" type="line" smooth="yes"/>
      <point x="197.14" y="302.94877534468776"/>
      <point x="387.65415473549774" y="-3.408888888888896"/>
      <point x="564.5429629629629" y="-3.408888888888896" type="qcurve" smooth="yes"/>
      <point x="672.0534807875791" y="-3.408888888888896"/>
      <point x="824.85864190462" y="51.2325788359"/>
      <point x="866.96" y="96.80740740740742" type="qcurve"/>
      <point x="866.96" y="630.074074074074" type="line"/>
      <point x="563.78" y="630.074074074074" type="line"/>
      <point x="563.78" y="658.6340740740741" type="line"/>
      <point x="944.3199999999999" y="658.6340740740741" type="line"/>
      <point x="944.3199999999999" y="125.4" type="line"/>
      <point x="886.04" y="63.400000000000006"/>
      <point x="713.6185606060606" y="-30.0"/>
      <point x="558.5799999999999" y="-30.0" type="qcurve" smooth="yes"/>
      <point x="361.52" y="-30.0"/>
      <point x="115.0" y="320.5348314606742"/>
    </contour>
  </outline>
</glyph>
<glyph name="M" format="2">
  <advance width="1404"/>
  <unicode hex="004D"/>
  <outline>
    <contour>
      <point x="170.0" y="0.0" type="line"/>
      <point x="170.0" y="1456.0" type="line"/>
      <point x="235.07407407407408" y="1456.0" type="line"/>
      <point x="655.0370370370371" y="193.92592592592592" type="line" smooth="yes"/>
      <point x="666.0370370370371" y="158.92592592592592"/>
      <point x="683.1111111111111" y="97.92592592592592"/>
      <point x="688.1481481481482" y="57.92592592592593" type="qcurve"/>
      <point x="696.0740740740741" y="57.92592592592593" type="line"/>
      <point x="701.0740740740741" y="97.92592592592592"/>
      <point x="719.5555555555555" y="159.92592592592592"/>
      <point x="730.5555555555555" y="194.92592592592592" type="qcurve" smooth="yes"/>
      <point x="1156.9259259259259" y="1456.0" type="line"/>
      <point x="1233.888888888889" y="1456.0" type="line"/>
      <point x="1233.888888888889" y="0.0" type="line"/>
      <point x="1152.888888888889" y="0.0" type="line"/>
      <point x="1152.888888888889" y="1183.0" type="line" smooth="yes"/>
      <point x="1152.888888888889" y="1219.0"/>
      <point x="1157.888888888889" y="1310.8148148148148"/>
      <point x="1160.888888888889" y="1345.8148148148148" type="qcurve"/>
      <point x="1152.888888888889" y="1345.8148148148148" type="line"/>
      <point x="1144.4814814814815" y="1310.8148148148148"/>
      <point x="1114.111111111111" y="1219.4814814814815"/>
      <point x="1103.111111111111" y="1183.0" type="qcurve" smooth="yes"/>
      <point x="694.0" y="0.0" type="line"/>
      <point x="639.0740740740741" y="0.0" type="line"/>
      <point x="229.85185185185185" y="1184.888888888889" type="line" smooth="yes"/>
      <point x="218.85185185185185" y="1220.888888888889"/>
      <point x="199.66666666666669" y="1311.7407407407406"/>
      <point x="195.62962962962962" y="1345.7777777777778" type="qcurve"/>
      <point x="185.62962962962962" y="1345.7777777777778" type="line"/>
      <point x="189.62962962962962" y="1310.7777777777778"/>
      <point x="193.62962962962962" y="1218.962962962963"/>
      <point x="193.62962962962962" y="1182.962962962963" type="qcurve" smooth="yes"/>
      <point x="193.62962962962962" y="0.0" type="line"/>
    </contour>
  </outline>
</glyph>
<glyph name="O" format="2">
  <advance width="1118"/>
  <unicode hex="004F"/>
  <anchor x="650.0" y="1432.0" name="top"/>
  <outline>
    <contour>
      <point x="115.0" y="686.8" type="qcurve" smooth="yes"/>
      <point x="115.0" y="769.2" type="line" smooth="yes"/>
      <point x="115.0" y="1107.44"/>
      <point x="359.3" y="1486.0"/>
      <point x="558.78" y="1486.0" type="qcurve" smooth="yes"/>
      <point x="758.1" y="1486.0"/>
      <point x="1001.56" y="1107.44"/>
      <point x="1001.56" y="769.2" type="qcurve" smooth="yes"/>
      <point x="1001.56" y="686.8" type="line" smooth="yes"/>
      <point x="1001.56" y="348.5348314606742"/>
      <point x="758.1" y="-30.0"/>
      <point x="558.78" y="-30.0" type="qcurve" smooth="yes"/>
      <point x="359.3" y="-30.0"/>
      <point x="115.0" y="348.5348314606742"/>
    </contour>
    <contour>
      <point x="197.14" y="656.8" type="line" smooth="yes"/>
      <point x="197.14" y="326.8687753446877"/>
      <point x="392.0326235741445" y="-3.408888888888896"/>
      <point x="558.78" y="-3.408888888888896" type="qcurve" smooth="yes"/>
      <point x="725.3524714828898" y="-3.408888888888896"/>
      <point x="918.4200000000001" y="326.8687753446877"/>
      <point x="918.4200000000001" y="656.8" type="qcurve" smooth="yes"/>
      <point x="918.4200000000001" y="800.2" type="line" smooth="yes"/>
      <point x="918.4200000000001" y="1130.128888888889"/>
      <point x="725.3524714828898" y="1459.408888888889"/>
      <point x="558.78" y="1459.408888888889" type="qcurve" smooth="yes"/>
      <point x="392.0326235741445" y="1459.408888888889"/>
      <point x="197.14" y="1130.128888888889"/>
      <point x="197.14" y="800.2" type="qcurve" smooth="yes"/>
    </contour>
  </outline>
</glyph>
<glyph name="bracketright" format="2">
  <advance width="472"/>
  <unicode hex="005D"/>
  <outline>
    <contour>
      <point x="327.72592592592594" y="-310.0" type="line"/>
      <point x="-3.1140740740740647" y="-310.0" type="line"/>
      <point x="-3.1140740740740647" y="-282.762962962963" type="line"/>
      <point x="246.92592592592592" y="-282.762962962963" type="line"/>
      <point x="246.92592592592592" y="1428.762962962963" type="line"/>
      <point x="-3.1140740740740647" y="1428.762962962963" type="line"/>
      <point x="-3.1140740740740647" y="1456.0" type="line"/>
      <point x="327.72592592592594" y="1456.0" type="line"/>
    </contour>
  </outline>
</glyph>
<glyph name="c" format="2">
  <advance width="705"/>
  <unicode hex="0063"/>
  <anchor x="497.0" y="0" name="bottom"/>
  <outline>
    <contour>
      <point x="85.0" y="510.0" type="qcurve" smooth="yes"/>
      <point x="85.0" y="542.0" type="line" smooth="yes"/>
      <point x="85.0" y="780.0"/>
      <point x="267.6" y="1082.0"/>
      <point x="427.36" y="1082.0" type="qcurve" smooth="yes"/>
      <point x="574.12" y="1082.0"/>
      <point x="719.8" y="860.8074074074074"/>
      <point x="719.8" y="715.0" type="qcurve" smooth="yes"/>
      <point x="719.8" y="710.0" type="line"/>
      <point x="644.0" y="710.0" type="line"/>
      <point x="644.0" y="715.0" type="line" smooth="yes"/>
      <point x="644.0" y="848.4592592592593"/>
      <point x="548.3423145400593" y="1051.4711111111112"/>
      <point x="426.36" y="1051.4711111111112" type="qcurve" smooth="yes"/>
      <point x="296.4515136476427" y="1051.4711111111112"/>
      <point x="166.36" y="786.9437037037037"/>
      <point x="166.36" y="572.0" type="qcurve" smooth="yes"/>
      <point x="166.36" y="480.0" type="line" smooth="yes"/>
      <point x="166.36" y="265.0562962962963"/>
      <point x="285.4515136476427" y="-0.4711111111111066"/>
      <point x="417.36" y="-0.4711111111111066" type="qcurve" smooth="yes"/>
      <point x="541.3423145400593" y="-0.4711111111111066"/>
      <point x="644.0" y="203.54074074074074"/>
      <point x="644.0" y="337.0" type="qcurve" smooth="yes"/>
      <point x="644.0" y="342.0" type="line"/>
      <point x="719.8" y="342.0" type="line"/>
      <point x="719.8" y="337.0" type="line" smooth="yes"/>
      <point x="719.8" y="191.19259259259258"/>
      <point x="574.12" y="-30.0"/>
      <point x="419.36" y="-30.0" type="qcurve" smooth="yes"/>
      <point x="267.6" y="-30.0"/>
      <point x="85.0" y="272.0"/>
    </contour>
  </outline>
</glyph>
<glyph name="e" format="2">
  <advance width="781"/>
  <unicode hex="0065"/>
  <anchor x="489.0" y="1053.0" name="top"/>
  <outline>
    <contour>
      <point x="85.0" y="510.0" type="qcurve" smooth="yes"/>
      <point x="85.0" y="542.0" type="line" smooth="yes"/>
      <point x="85.0" y="780.0"/>
      <point x="267.53999999999996" y="1082.0"/>
      <point x="417.71999999999997" y="1082.0" type="qcurve" smooth="yes"/>
      <point x="565.0999999999999" y="1082.0"/>
      <point x="723.8399999999999" y="800.0"/>
      <point x="723.8399999999999" y="560.0" type="qcurve" smooth="yes"/>
      <point x="723.8399999999999" y="544.074074074074" type="line"/>
      <point x="116.58000000000001" y="544.074074074074" type="line"/>
      <point x="116.58000000000001" y="571.925925925926" type="line"/>
      <point x="640.8355555555555" y="571.925925925926" type="line"/>
      <point x="640.8355555555555" y="578.2770370370371" type="line" smooth="yes"/>
      <point x="640.8355555555555" y="768.8"/>
      <point x="557.0687576719577" y="1052.4711111111112"/>
      <point x="405.8681481481481" y="1052.4711111111112" type="qcurve" smooth="yes"/>
      <point x="293.01511568123397" y="1052.4711111111112"/>
      <point x="162.56" y="809.2666666666667"/>
      <point x="162.56" y="572.0" type="qcurve" smooth="yes"/>
      <point x="162.56" y="480.0" type="line" smooth="yes"/>
      <point x="162.56" y="250.73333333333332"/>
      <point x="292.2241860465116" y="-0.4711111111111066"/>
      <point x="435.48" y="-0.4711111111111066" type="qcurve" smooth="yes"/>
      <point x="517.8762340966921" y="-0.4711111111111066"/>
      <point x="618.1229629629629" y="100.6459259259259"/>
      <point x="658.2" y="187.1185185185185" type="qcurve"/>
      <point x="729.3585185185184" y="148.6" type="line"/>
      <point x="685.8785185185184" y="61.91111111111111"/>
      <point x="544.12" y="-30.0"/>
      <point x="445.48" y="-30.0" type="qcurve" smooth="yes"/>
      <point x="271.24" y="-30.0"/>
      <point x="85.0" y="272.0"/>
    </contour>
  </outline>
</glyph>
<glyph name="h" format="2">
  <advance width="865"/>
  <unicode hex="0068"/>
  <outline>
    <contour>
      <point x="148.0" y="0.0" type="line"/>
      <point x="148.0" y="1536.0" type="line"/>
      <point x="228.32" y="1536.0" type="line"/>
      <point x="228.32" y="903.6" type="line"/>
      <point x="265.58" y="979.3155555555555"/>
      <point x="389.44518518518515" y="1072.0"/>
      <point x="488.20222222222225" y="1072.0" type="qcurve" smooth="yes"/>
      <point x="600.4" y="1072.0"/>
      <point x="726.76" y="946.0681481481481"/>
      <point x="726.76" y="824.1481481481482" type="qcurve" smooth="yes"/>
      <point x="726.76" y="0.0" type="line"/>
      <point x="646.4399999999999" y="0.0" type="line"/>
      <point x="646.4399999999999" y="826.1481481481482" type="line" smooth="yes"/>
      <point x="646.4399999999999" y="933.2725925925927"/>
      <point x="562.28" y="1044.117037037037"/>
      <point x="476.24" y="1044.117037037037" type="qcurve" smooth="yes"/>
      <point x="386.44" y="1044.117037037037"/>
      <point x="258.02" y="926.8711111111111"/>
      <point x="228.32" y="850.5481481481481" type="qcurve"/>
      <point x="228.32" y="0.0" type="line"/>
    </contour>
  </outline>
</glyph>
<glyph name="m" format="2">
  <advance width="1323"/>
  <unicode hex="006D"/>
  <outline>
    <contour>
      <point x="148.0" y="0.0" type="line"/>
      <point x="148.0" y="1052.0" type="line"/>
      <point x="222.36" y="1052.0" type="line"/>
      <point x="223.92000000000002" y="922.4" type="line"/>
      <point x="224.16000000000003" y="922.4" type="line"/>
      <point x="268.0" y="991.4755555555555"/>
      <point x="393.26" y="1072.0"/>
      <point x="473.98" y="1072.0" type="qcurve" smooth="yes"/>
      <point x="557.22" y="1072.0"/>
      <point x="669.4599999999999" y="981.6355555555556"/>
      <point x="691.12" y="905.5348148148148" type="qcurve"/>
      <point x="691.52" y="905.5348148148148" type="line"/>
      <point x="730.441775493821" y="975.8193568572914"/>
      <point x="866.5555555555554" y="1072.0"/>
      <point x="953.22" y="1072.0" type="qcurve" smooth="yes"/>
      <point x="1058.1020689655172" y="1072.0"/>
      <point x="1185.1999999999998" y="946.0681481481481"/>
      <point x="1185.1999999999998" y="873.1481481481482" type="qcurve" smooth="yes"/>
      <point x="1185.1999999999998" y="0.0" type="line"/>
      <point x="1103.8799999999999" y="0.0" type="line"/>
      <point x="1103.8799999999999" y="844.1481481481482" type="line" smooth="yes"/>
      <point x="1103.3999999999999" y="949.2725925925927"/>
      <point x="1009.72" y="1044.117037037037"/>
      <point x="928.6800000000001" y="1044.117037037037" type="qcurve" smooth="yes"/>
      <point x="844.88" y="1044.117037037037"/>
      <point x="731.3" y="947.5496296296296"/>
      <point x="706.76" y="890.5481481481481" type="qcurve"/>
      <point x="706.76" y="0.0" type="line"/>
      <point x="625.4399999999999" y="0.0" type="line"/>
      <point x="625.4399999999999" y="846.1481481481482" type="line" smooth="yes"/>
      <point x="624.96" y="949.2725925925927"/>
      <point x="525.28" y="1044.117037037037"/>
      <point x="454.24" y="1044.117037037037" type="qcurve" smooth="yes"/>
      <point x="380.44" y="1044.117037037037"/>
      <point x="256.86" y="947.5496296296296"/>
      <point x="228.32" y="890.5481481481481" type="qcurve"/>
      <point x="228.32" y="0.0" type="line"/>
    </contour>
  </outline>
</glyph>
<glyph name="p" format="2">
  <advance width="888"/>
  <unicode hex="0070"/>
  <outline>
    <contour>
      <point x="148.0" y="-416.0" type="line"/>
      <point x="148.0" y="1052.0" type="line"/>
      <point x="222.36" y="1052.0" type="line"/>
      <point x="223.92000000000002" y="925.2" type="line"/>
      <point x="224.16000000000003" y="925.2" type="line"/>
      <point x="260.42" y="984.7970370370371"/>
      <point x="400.78" y="1072.0"/>
      <point x="489.76" y="1072.0" type="qcurve" smooth="yes"/>
      <point x="638.68" y="1072.0"/>
      <point x="802.5999999999999" y="772.0"/>
      <point x="802.5999999999999" y="542.0" type="qcurve" smooth="yes"/>
      <point x="802.5999999999999" y="510.0" type="line" smooth="yes"/>
      <point x="802.5999999999999" y="280.0"/>
      <point x="638.68" y="-20.0"/>
      <point x="489.76" y="-20.0" type="qcurve" smooth="yes"/>
      <point x="400.62" y="-20.0"/>
      <point x="270.22" y="55.04296296296296"/>
      <point x="228.32" y="113.80000000000001" type="qcurve"/>
      <point x="228.32" y="-416.0" type="line"/>
    </contour>
    <contour>
      <point x="228.32" y="164.65185185185186" type="line"/>
      <point x="251.2" y="115.41037037037037"/>
      <point x="368.96000000000004" y="9.528888888888893"/>
      <point x="466.72" y="9.528888888888893" type="qcurve" smooth="yes"/>
      <point x="594.96" y="9.528888888888893"/>
      <point x="721.24" y="268.0562962962963"/>
      <point x="721.24" y="480.0" type="qcurve" smooth="yes"/>
      <point x="721.24" y="572.0" type="line" smooth="yes"/>
      <point x="721.24" y="783.9437037037037"/>
      <point x="597.96" y="1042.4711111111112"/>
      <point x="471.72" y="1042.4711111111112" type="qcurve" smooth="yes"/>
      <point x="380.96000000000004" y="1042.4711111111112"/>
      <point x="254.36" y="942.5896296296297"/>
      <point x="228.32" y="885.3481481481482" type="qcurve"/>
    </contour>
  </outline>
</glyph>
<glyph name="u" format="2">
  <advance width="865"/>
  <unicode hex="0075"/>
  <anchor x="494.0" y="1052.0" name="top"/>
  <outline>
    <contour>
      <point x="138.0" y="253.85185185185185" type="qcurve" smooth="yes"/>
      <point x="138.0" y="1052.0" type="line"/>
      <point x="218.32" y="1052.0" type="line"/>
      <point x="218.32" y="251.85185185185185" type="line" smooth="yes"/>
      <point x="218.32" y="121.72740740740741"/>
      <point x="308.48" y="7.882962962962971"/>
      <point x="405.52" y="7.882962962962971" type="qcurve" smooth="yes"/>
      <point x="489.31999999999994" y="7.882962962962971"/>
      <point x="596.74" y="91.1288888888889"/>
      <point x="636.4399999999999" y="161.45185185185184" type="qcurve"/>
      <point x="636.4399999999999" y="1052.0" type="line"/>
      <point x="716.76" y="1052.0" type="line"/>
      <point x="716.76" y="0.0" type="line"/>
      <point x="642.4" y="0.0" type="line"/>
      <point x="641.8399999999999" y="109.6" type="line"/>
      <point x="639.6" y="109.6" type="line"/>
      <point x="598.5" y="53.52444444444444"/>
      <point x="472.5" y="-20.0"/>
      <point x="370.78" y="-20.0" type="qcurve" smooth="yes"/>
      <point x="269.36" y="-20.0"/>
      <point x="138.0" y="105.93185185185183"/>
    </contour>
  </outline>
</glyph>
<glyph name="z" format="2">
  <advance width="749"/>
  <unicode hex="007A"/>
  <outline>
    <contour>
      <point x="55.0" y="0.0" type="line"/>
      <point x="55.0" y="59.002962962962954" type="line"/>
      <point x="607.6192592592593" y="1022.4711111111111" type="line"/>
      <point x="62.480000000000004" y="1022.4711111111111" type="line"/>
      <point x="62.480000000000004" y="1052.0" type="line"/>
      <point x="671.0799999999999" y="1052.0" type="line"/>
      <point x="671.0799999999999" y="987.6977777777778" type="line"/>
      <point x="117.62074074074073" y="29.528888888888893" type="line"/>
      <point x="698.84" y="29.528888888888893" type="line"/>
      <point x="698.84" y="0.0" type="line"/>
    </contour>
  </outline>
</glyph>
<glyph name="braceleft" format="2">
  <advance width="596"/>
  <unicode hex="007B"/>
  <outline>
    <contour>
      <point x="532.48" y="-312.0" type="line"/>
      <point x="374.56" y="-312.0"/>
      <point x="187.92000000000002" y="-83.74962962962964"/>
      <point x="228.04" y="109.4" type="qcurve" smooth="yes"/>
      <point x="276.0" y="334.0" type="line" smooth="yes"/>
      <point x="303.4" y="468.71407407407406"/>
      <point x="184.0" y="556.4592592592593"/>
      <point x="81.52000000000001" y="556.4592592592593" type="qcurve"/>
      <point x="81.52000000000001" y="591.5407407407407" type="line"/>
      <point x="184.0" y="591.5407407407407"/>
      <point x="303.4" y="679.285925925926"/>
      <point x="276.0" y="814.0" type="qcurve" smooth="yes"/>
      <point x="228.04" y="1038.6" type="line" smooth="yes"/>
      <point x="187.92000000000002" y="1231.7496296296295"/>
      <point x="374.56" y="1460.0"/>
      <point x="532.48" y="1460.0" type="qcurve"/>
      <point x="532.48" y="1429.5022222222221" type="line"/>
      <point x="403.28" y="1429.5022222222221"/>
      <point x="272.82" y="1221.0162962962963"/>
      <point x="309.84000000000003" y="1038.6" type="qcurve" smooth="yes"/>
      <point x="357.8" y="814.0" type="line" smooth="yes"/>
      <point x="376.92" y="730.32"/>
      <point x="303.76" y="603.4"/>
      <point x="205.24" y="574.0" type="qcurve"/>
      <point x="303.76" y="544.6"/>
      <point x="376.6" y="417.84"/>
      <point x="357.8" y="334.0" type="qcurve" smooth="yes"/>
      <point x="309.84000000000003" y="109.4" type="line" smooth="yes"/>
      <point x="272.82" y="-73.01629629629629"/>
      <point x="403.28" y="-281.5022222222222"/>
      <point x="532.48" y="-281.5022222222222" type="qcurve"/>
    </contour>
  </outline>
</glyph>
<glyph name="braceright" format="2">
  <advance width="596"/>
  <unicode hex="007D"/>
  <outline>
    <contour>
      <point x="63.32000000000001" y="-312.0" type="qcurve"/>
      <point x="63.32000000000001" y="-281.5022222222222" type="line"/>
      <point x="192.52" y="-281.5022222222222"/>
      <point x="322.98" y="-73.01629629629629"/>
      <point x="285.96" y="109.4" type="qcurve" smooth="yes"/>
      <point x="238.0" y="334.0" type="line" smooth="yes"/>
      <point x="219.2" y="417.84"/>
      <point x="292.04" y="544.6"/>
      <point x="390.56" y="574.0" type="qcurve"/>
      <point x="292.04" y="603.4"/>
      <point x="219.2" y="730.16"/>
      <point x="238.0" y="814.0" type="qcurve" smooth="yes"/>
      <point x="285.96" y="1038.6" type="line" smooth="yes"/>
      <point x="322.98" y="1221.0162962962963"/>
      <point x="192.52" y="1429.5022222222221"/>
      <point x="63.32000000000001" y="1429.5022222222221" type="qcurve"/>
      <point x="63.32000000000001" y="1460.0" type="line"/>
      <point x="221.24" y="1460.0"/>
      <point x="408.88" y="1231.7496296296295"/>
      <point x="367.76" y="1038.6" type="qcurve" smooth="yes"/>
      <point x="319.8" y="814.0" type="line" smooth="yes"/>
      <point x="292.4" y="679.285925925926"/>
      <point x="411.8" y="591.5407407407407"/>
      <point x="514.28" y="591.5407407407407" type="qcurve"/>
      <point x="514.28" y="556.4592592592593" type="line"/>
      <point x="411.8" y="556.4592592592593"/>
      <point x="292.4" y="468.71407407407406"/>
      <point x="319.8" y="334.0" type="qcurve" smooth="yes"/>
      <point x="367.76" y="109.4" type="line" smooth="yes"/>
      <point x="408.88" y="-83.74962962962964"/>
      <point x="221.24" y="-312.0"/>
    </contour>
  </outline>
</glyph>
<glyph name="asciitilde" format="2">
  <advance width="1359"/>
  <unicode hex="007E"/>
  <outline>
    <contour>
      <point x="422.0" y="618.074074074074" type="qcurve"/>
      <point x="422.0" y="669.3703703703703" type="line"/>
      <point x="443.0" y="709.9629629629629"/>
      <point x="497.0" y="748.5185185185185"/>
      <point x="536.0" y="749.0" type="qcurve" smooth="yes"/>
      <point x="532.0" y="749.0"/>
      <point x="634.0" y="735.0"/>
      <point x="681.0" y="721.0" type="qcurve" smooth="yes"/>
      <point x="725.0" y="709.0"/>
      <point x="826.0" y="692.0"/>
      <point x="823.0" y="692.0" type="qcurve" smooth="yes"/>
      <point x="867.0" y="692.0"/>
      <point x="923.0" y="720.8148148148148"/>
      <point x="944.0" y="748.5925925925926" type="qcurve"/>
      <point x="944.0" y="689.0370370370371" type="line"/>
      <point x="924.0" y="650.4814814814815"/>
      <point x="867.0" y="608.0"/>
      <point x="826.0" y="608.0" type="qcurve" smooth="yes"/>
      <point x="834.0" y="608.0"/>
      <point x="751.0" y="615.0"/>
      <point x="716.0" y="623.0" type="qcurve" smooth="yes"/>
      <point x="661.0" y="640.0"/>
      <point x="541.0" y="665.0"/>
      <point x="540.0" y="665.0" type="qcurve" smooth="yes"/>
      <point x="499.0" y="665.0"/>
      <point x="444.0" y="644.0"/>
    </contour>
  </outline>
</glyph>
<glyph name="degree" format="2">
  <advance width="765"/>
  <unicode hex="00B0"/>
  <outline>
    <contour>
      <point x="151.0" y="1239.0" type="qcurve"/>
      <point x="151.0" y="1336.0"/>
      <point x="290.2686567164179" y="1477.0"/>
      <point x="385.0" y="1477.0" type="qcurve" smooth="yes"/>
      <point x="478.98507462686564" y="1477.0"/>
      <point x="615.0" y="1336.0"/>
      <point x="615.0" y="1239.0" type="qcurve" smooth="yes"/>
      <point x="615.0" y="1141.0"/>
      <point x="479.0" y="1004.0"/>
      <point x="385.0" y="1004.0" type="qcurve" smooth="yes"/>
      <point x="290.0" y="1004.0"/>
      <point x="151.0" y="1141.0"/>
    </contour>
    <contour>
      <point x="235.0" y="1239.0" type="qcurve"/>
      <point x="235.0" y="1176.2238805970148"/>
      <point x="324.0" y="1091.0"/>
      <point x="385.0" y="1091.0" type="qcurve" smooth="yes"/>
      <point x="447.0" y="1091.0"/>
      <point x="531.0" y="1176.0"/>
      <point x="531.0" y="1239.0" type="qcurve" smooth="yes"/>
      <point x="531.0" y="1303.0"/>
      <point x="447.0" y="1390.0"/>
      <point x="385.0" y="1390.0" type="qcurve" smooth="yes"/>
      <point x="324.0" y="1390.0"/>
      <point x="235.0" y="1303.0298507462687"/>
    </contour>
  </outline>
</glyph>
<glyph name="hungarumlaut" format="2">
  <advance width="1024"/>
  <unicode hex="02DD"/>
  <anchor x="397.0" y="2031.0" name="mkmktop_acc"/>
  <outline>
    <contour>
      <point x="806.0" y="1116.0" type="line"/>
      <point x="1025.0" y="1447.0" type="line"/>
      <point x="1185.0" y="1505.0" type="line"/>
      <point x="958.0" y="1174.0" type="line"/>
    </contour>
    <contour>
      <point x="-62.0" y="1116.0" type="line"/>
      <point x="45.0" y="1447.0" type="line"/>
      <point x="197.0" y="1505.0" type="line"/>
      <point x="62.0" y="1174.0" type="line"/>
    </contour>
  </outline>
</glyph>
<glyph name="horncomb.case" format="2">
  <advance width="1024"/>
  <outline>
    <contour>
      <point x="382.0" y="1441.1851851851852" type="line"/>
      <point x="455.0" y="1441.1851851851852" type="line" smooth="yes"/>
      <point x="518.0" y="1441.1851851851852"/>
      <point x="653.0" y="1472.1851851851852"/>
      <point x="653.0" y="1529.1851851851852" type="qcurve" smooth="yes"/>
      <point x="653.0" y="1570.1851851851852"/>
      <point x="642.0" y="1643.1851851851852"/>
      <point x="633.0" y="1679.1851851851852" type="qcurve"/>
      <point x="720.6296296296297" y="1679.1851851851852" type="line"/>
      <point x="735.6296296296297" y="1647.1851851851852"/>
      <point x="764.6296296296297" y="1560.1851851851852"/>
      <point x="764.6296296296297" y="1501.1851851851852" type="qcurve" smooth="yes"/>
      <point x="764.6296296296297" y="1433.1851851851852"/>
      <point x="616.0" y="1358.4444444444443"/>
      <point x="530.0" y="1358.4444444444443" type="qcurve" smooth="yes"/>
      <point x="484.0" y="1358.4444444444443"/>
      <point x="408.0" y="1373.4074074074074"/>
      <point x="382.0" y="1385.3703703703704" type="qcurve"/>
    </contour>
  </outline>
</glyph>
